<svg width="298" height="230" xmlns="http://www.w3.org/2000/svg" xmlns:xlink="http://www.w3.org/1999/xlink" xml:space="preserve" overflow="hidden"><g transform="translate(43 -34)"><path d="M192.749 184.339C186.031 184.908 179.921 191.826 173.672 192.494 168.811 193.013 166.555 192.494 161.064 189.769 161.174 188.232 161.284 186.684 161.284 185.137L161.284 125.581C161.284 123.365 160.286 121.937 157.64 121.937 154.665 121.937 142.636 123.814 137.785 125.241 135.688 125.91 134.81 126.459 134.81 127.897 134.81 132.089 141.758 133.078 141.758 143.669L141.758 153.153C141.758 164.513 137.455 169.474 132.055 169.474 127.752 169.474 125.047 165.761 125.047 155.948L125.047 153.782C125.047 150.188 125.097 148.96 125.037 145.047 125.376 142.372 125.067 138.568 124.987 136.072 124.887 132.878 125.835 130.442 122.891 127.897 119.786 125.221 112.569 125.241 108.236 125.151 104.383 125.072 102.476 124.872 100.599 125.391 98.9822 125.83 98.2635 126.679 98.2635 128.126 98.2635 131.141 101.168 134.146 102.616 137.27 103.395 139.057 104.063 141.623 104.393 144.298 105.401 150.208 105.291 148.341 105.291 154.371 90.7964 154.371 85.6654 130.951 85.6654 116.447 85.6654 99.4961 91.0161 85.8898 97.375 85.8898 105.621 85.8898 97.375 110.098 113.098 110.098 119.566 110.098 123.36 105.855 123.36 99.2765 123.36 89.6832 115.553 80.0898 99.2717 80.0898 64.3624 80.0898 32.9171 94.924 32.9171 118.683 32.9171 132.059 42.6102 139.866 52.0938 139.866 58.7821 139.866 62.9149 135.963 62.9149 128.825 62.9149 113.771 44.8464 119.681 44.8464 107.303 44.8464 97.27 56.556 92.6979 69.7131 90.8012 73.3967 90.1324 73.9557 91.2504 71.8294 94.5946 67.3772 101.732 64.8116 111.316 64.8116 122.915 64.8116 142.661 72.8377 163.734 94.2504 163.734 100.39 163.734 103.434 161.987 106.13 160.62L106.13 163.635C106.13 168.816 108.116 180.505 122.671 180.505 130.507 180.505 137.236 177.091 141.758 171.351L141.758 179.407C141.758 181.054 141.648 182.711 141.538 184.259 137.236 183.37 132.714 182.821 128.301 182.821 113.078 182.821 104.143 189 104.143 199.372 104.143 208.077 110.103 217.9 128.631 217.9 144.403 217.9 154.775 210.733 159.078 198.813 166.385 205.152 173.323 208.447 183.934 208.187 195.215 207.918 201.254 203.116 201.254 194.631 201.254 187.234 196.602 184.009 192.749 184.339ZM128.191 200.69C122.791 200.69 120.694 198.374 120.694 195.29 120.694 191.646 123.45 188.561 130.288 188.561 133.482 188.561 136.906 189.33 140.54 190.438 138.783 196.837 135.03 200.69 128.191 200.69Z"/></g></svg>