<svg width="596" height="201" xmlns="http://www.w3.org/2000/svg" xmlns:xlink="http://www.w3.org/1999/xlink" xml:space="preserve" overflow="hidden"><g transform="translate(-399 -357)"><path d="M552.199 439.842C550.982 442.267 550.253 444.943 549.893 447.857 548.436 457.201 549.165 468.001 549.165 473.342 549.165 480.139 548.077 481.228 545.401 481.228 540.55 481.228 539.572 477.344 534.481 477.344 528.532 477.344 526.595 482.445 515.665 482.445 492.357 482.445 483.622 459.506 483.622 438.025 483.622 425.397 486.417 414.966 491.268 407.2 493.574 403.557 492.965 402.349 488.963 403.077 474.638 405.144 461.891 410.115 461.891 421.045 461.891 434.521 481.556 428.083 481.556 444.473 481.556 452.239 477.064 456.492 469.787 456.492 459.465 456.492 448.914 447.997 448.914 433.433 448.914 407.579 483.143 391.438 521.135 391.438 538.853 391.438 547.348 401.88 547.348 412.311 547.348 419.468 543.225 424.08 536.178 424.08 519.069 424.08 528.043 397.747 519.069 397.747 512.151 397.747 506.322 412.551 506.322 431.007 506.322 446.789 511.902 472.274 527.683 472.274 527.683 465.715 527.803 454.795 526.715 448.366 526.356 445.452 525.627 442.667 524.768 440.72 523.191 437.326 520.037 434.042 520.037 430.768 520.037 429.191 520.766 428.103 522.582 428.103L553.896 428.103C555.843 428.103 556.691 428.951 556.691 430.768 556.691 434.162 553.417 436.957 552.199 439.872Z"/><path d="M587.396 426.126C591.649 420.177 597.838 416.663 605.604 416.663 616.165 416.663 624.54 423.221 624.54 432.924 624.54 439.722 620.417 444.214 613.37 444.214 598.806 444.214 607.79 425.517 599.045 425.517 591.888 425.517 587.396 437.775 587.396 449.185L587.396 453.068C587.396 472.733 594.553 473.701 594.553 478.682 594.553 480.379 593.705 481.228 592.008 481.228L560.814 481.228C559.117 481.228 558.268 480.379 558.268 478.432 558.268 473.701 563.369 472.603 565.186 459.496 565.915 454.765 566.274 447.728 565.426 441.898 563.849 430.369 558.268 429.151 558.268 424.789 558.268 422.972 559.117 422.363 561.543 421.634 566.883 420.057 579.99 417.991 583.274 417.991 586.188 417.991 587.396 419.568 587.396 421.994L587.396 426.116Z"/><path d="M690.442 454.525C692.748 455.254 693.107 458.778 690.442 464.358 686.439 472.244 677.335 482.445 659.487 482.445 639.343 482.445 626.357 469.578 626.357 450.522 626.357 430.249 641.04 416.663 661.673 416.663 676.237 416.663 687.647 423.461 687.647 436.937 687.647 448.227 679.511 458.907 656.213 461.573 659.367 464.238 663.37 465.576 667.982 465.576 673.562 465.576 681.208 463.629 686.678 456.841 688.625 454.535 689.474 454.296 690.442 454.535ZM664.588 434.012C664.588 426.855 662.642 422.962 659.128 422.962 653.668 422.962 649.176 431.457 649.176 442.866 649.176 448.446 650.264 453.058 652.21 456.701 661.074 452.09 664.588 443.834 664.588 434.002Z"/><path d="M758.769 454.525C761.075 455.254 761.435 458.778 758.769 464.358 754.767 472.244 745.663 482.445 727.815 482.445 707.671 482.445 694.684 469.578 694.684 450.522 694.684 430.249 709.368 416.663 730.001 416.663 744.565 416.663 755.974 423.461 755.974 436.937 755.974 448.227 747.839 458.907 724.541 461.573 727.695 464.238 731.698 465.576 736.31 465.576 741.89 465.576 749.536 463.629 755.006 456.841 756.953 454.535 757.801 454.296 758.769 454.535ZM732.916 434.012C732.916 426.855 730.969 422.962 727.455 422.962 721.995 422.962 717.503 431.457 717.503 442.866 717.503 448.446 718.591 453.058 720.538 456.701 729.402 452.09 732.916 443.834 732.916 434.002Z"/><path d="M828.804 453.068C828.804 472.733 836.091 473.701 836.091 478.682 836.091 480.379 835.123 481.228 833.545 481.228L803.08 481.228C801.503 481.228 800.654 480.379 800.654 478.562 800.654 473.711 807.332 472.733 807.332 460.844L807.332 443.246C807.332 432.565 805.026 428.801 800.175 428.801 794.226 428.801 789.614 434.262 789.614 446.769L789.614 453.078C789.614 472.743 796.771 473.711 796.771 478.692 796.771 480.389 795.923 481.237 794.226 481.237L763.032 481.237C761.335 481.237 760.486 480.389 760.486 478.443 760.486 473.711 765.587 472.613 767.404 459.506 768.133 454.775 768.492 447.737 767.643 441.908 766.066 430.379 760.486 429.161 760.486 424.799 760.486 422.982 761.335 422.373 763.76 421.644 769.101 420.067 782.207 418.001 785.491 418.001 788.406 418.001 789.614 419.578 789.614 422.004L789.614 426.855C794.465 420.426 801.992 416.663 810.617 416.663 826.518 416.663 828.824 429.65 828.824 435.23L828.824 453.068Z"/><path d="M898.958 502.589C894.227 515.696 882.817 523.592 865.458 523.592 845.065 523.592 838.517 512.791 838.517 503.198 838.517 491.789 848.349 484.991 865.099 484.991 869.95 484.991 874.931 485.6 879.663 486.568 879.783 484.871 879.902 483.044 879.902 481.228L879.902 472.363C874.921 478.672 867.525 482.435 858.9 482.435 842.879 482.435 840.693 469.568 840.693 463.869L840.693 449.065C840.693 446.639 840.573 444.084 840.084 441.908 838.626 430.379 833.046 429.161 833.046 424.799 833.046 422.982 833.895 422.373 836.32 421.644 841.661 420.067 854.767 418.001 858.052 418.001 860.966 418.001 862.174 419.578 862.174 422.004L862.174 455.863C862.174 466.664 864.48 470.307 869.212 470.307 875.161 470.307 879.892 464.847 879.892 452.339L879.892 441.898C879.892 430.249 872.246 429.151 872.246 424.539 872.246 422.962 873.214 422.353 875.52 421.624 880.861 420.047 894.087 417.981 897.371 417.981 900.286 417.981 901.374 419.558 901.374 421.984L901.374 487.526C901.374 489.223 901.254 490.93 901.134 492.627M867.275 491.299C859.749 491.299 856.714 494.693 856.714 498.706 856.714 502.1 859.02 504.656 864.969 504.656 872.496 504.656 876.618 500.403 878.565 493.366 874.562 492.148 870.799 491.299 867.275 491.299Z"/><path d="M867.794 476.107C873.714 476.107 879.982 464.877 879.982 452.439L879.982 442.058C879.982 430.468 872.376 429.38 872.376 424.799 872.376 423.231 873.344 422.622 875.63 421.904 880.941 420.337 894.097 418.28 897.351 418.28 900.246 418.28 901.334 419.847 901.334 422.263L901.334 487.436C901.334 489.123 901.214 490.82 901.094 492.507 907.114 495.482 909.579 496.051 914.89 495.482 921.728 494.753 928.406 487.177 935.772 486.558 939.975 486.199 945.076 489.732 945.076 497.818 945.076 507.111 938.468 512.362 926.13 512.661 914.52 512.941 906.924 509.337 898.928 502.4 894.227 515.436 882.877 523.282 865.618 523.282 845.344 523.282 838.826 512.541 838.826 503.008 838.826 491.659 848.599 484.901 865.259 484.901 870.09 484.901 875.031 485.5 879.743 486.468 879.862 484.781 879.982 482.964 879.982 481.158L879.982 472.343C875.031 478.622 867.674 482.365 859.1 482.365M867.435 491.19C859.948 491.19 856.934 494.564 856.934 498.556 856.934 501.94 859.229 504.476 865.139 504.476 872.625 504.476 876.728 500.253 878.655 493.246 874.672 492.038 870.928 491.2 867.435 491.2Z"/></g></svg>